<svg xmlns:xlink="http://www.w3.org/1999/xlink" xmlns="http://www.w3.org/2000/svg" id="Ebene_2" data-name="Ebene 2" viewBox="0 0 500 500" width="500"  height="500" >
  <defs>
    <style>
      .cls-1 {
        fill: none;
      }

      .cls-1, .cls-2, .cls-3 {
        stroke-width: 0px;
      }

      .cls-2 {
        fill: #ffb000;
      }

      .cls-3 {
        fill: #fff;
      }
    </style>
  </defs>
  <g id="Ebene_1-2" data-name="Ebene 1">
    <path class="cls-1" d="m183.76,373.54c3.56,3.79,5.33,8.64,5.33,14.56s-1.8,10.88-5.42,14.73c-3.62,3.85-8.07,5.77-13.36,5.77s-9.98-1.89-13.58-5.68c-3.6-3.78-5.39-8.74-5.39-14.88s1.79-10.87,5.39-14.59c3.6-3.73,8.12-5.59,13.58-5.59s9.9,1.9,13.45,5.68Z"/>
    <path class="cls-1" d="m101.24,373.73c-3.54-3.7-8.18-5.55-13.57-5.55s-9.87,1.87-13.45,5.61c-3.58,3.75-5.37,8.37-5.37,14.38s1.77,10.87,5.31,14.59c3.54,3.73,8.01,5.59,13.44,5.59s9.94-1.88,13.54-5.65c3.6-3.76,5.41-8.61,5.41-14.53s-1.77-10.74-5.31-14.44Zm0,0c-3.54-3.7-8.18-5.55-13.57-5.55s-9.87,1.87-13.45,5.61c-3.58,3.75-5.37,8.37-5.37,14.38s1.77,10.87,5.31,14.59c3.54,3.73,8.01,5.59,13.44,5.59s9.94-1.88,13.54-5.65c3.6-3.76,5.41-8.61,5.41-14.53s-1.77-10.74-5.31-14.44Zm0,0c-3.54-3.7-8.18-5.55-13.57-5.55s-9.87,1.87-13.45,5.61c-3.58,3.75-5.37,8.37-5.37,14.38s1.77,10.87,5.31,14.59c3.54,3.73,8.01,5.59,13.44,5.59s9.94-1.88,13.54-5.65c3.6-3.76,5.41-8.61,5.41-14.53s-1.77-10.74-5.31-14.44Zm162.55-.28c-3.58-3.73-8.25-5.59-13.6-5.59s-9.8,1.9-13.34,5.68c-3.54,3.79-5.31,8.59-5.31,14.56s1.8,10.88,5.4,14.73c3.61,3.85,7.88,5.77,13.32,5.77s9.95-1.89,13.53-5.68c3.58-3.78,5.38-8.74,5.38-14.88s-1.8-10.87-5.38-14.59Zm82.85,0c-3.51-3.6-8.12-5.4-13.58-5.4s-9.96,1.83-13.52,5.49c-3.55,3.66-5.33,8.04-5.33,13.8s1.82,10.47,5.46,14.15c3.64,3.69,8.34,5.53,13.71,5.53s9.8-1.8,13.29-5.4c3.49-3.59,5.24-8.31,5.24-14.15s-1.76-10.43-5.27-14.02Zm0,0c-3.51-3.6-8.12-5.4-13.58-5.4s-9.96,1.83-13.52,5.49c-3.55,3.66-5.33,8.04-5.33,13.8s1.82,10.47,5.46,14.15c3.64,3.69,8.34,5.53,13.71,5.53s9.8-1.8,13.29-5.4c3.49-3.59,5.24-8.31,5.24-14.15s-1.76-10.43-5.27-14.02Zm-82.85,0c-3.58-3.73-8.25-5.59-13.6-5.59s-9.8,1.9-13.34,5.68c-3.54,3.79-5.31,8.59-5.31,14.56s1.8,10.88,5.4,14.73c3.61,3.85,7.88,5.77,13.32,5.77s9.95-1.89,13.53-5.68c3.58-3.78,5.38-8.74,5.38-14.88s-1.8-10.87-5.38-14.59Zm-162.55.28c-3.54-3.7-8.18-5.55-13.57-5.55s-9.87,1.87-13.45,5.61c-3.58,3.75-5.37,8.37-5.37,14.38s1.77,10.87,5.31,14.59c3.54,3.73,8.01,5.59,13.44,5.59s9.94-1.88,13.54-5.65c3.6-3.76,5.41-8.61,5.41-14.53s-1.77-10.74-5.31-14.44ZM400,0H100C44.77,0,0,44.77,0,100v300c0,55.23,44.77,100,100,100h300c55.23,0,100-44.77,100-100V100c0-55.23-44.77-100-100-100ZM119.14,406.38c-3.23,5.67-7.64,10.1-13.23,13.3-5.58,3.19-11.74,4.79-18.47,4.79-9.9,0-18.35-3.53-25.35-10.57-7-7.04-10.5-15.6-10.5-25.67,0-10.79,3.96-19.78,11.87-26.97,6.93-6.26,14.91-9.39,23.92-9.39,6.52,0,12.64,1.63,18.37,4.89,5.73,3.25,10.21,7.67,13.42,13.26,3.22,5.58,4.83,11.61,4.83,18.08s-1.62,12.61-4.86,18.28Zm77.44,7.71c-6.51,6.92-14.23,10.38-23.16,10.38-3.98,0-7.68-.71-11.11-2.13-3.42-1.42-6.83-3.73-10.21-6.95v32.56h-17.2v-94.3h17.2v7.61c3.13-3.13,6.51-5.48,10.15-7.04,3.64-1.57,7.53-2.35,11.68-2.35,9.01,0,16.67,3.4,22.97,10.22,6.3,6.81,9.46,15.54,9.46,26.2s-3.26,18.88-9.78,25.8Zm89.15,8.6h-17.32v-7.3c-3.39,3.22-6.78,5.53-10.18,6.95-3.4,1.42-7.09,2.13-11.06,2.13-8.91,0-16.63-3.46-23.13-10.38-6.51-6.92-9.76-15.51-9.76-25.8s3.14-19.39,9.44-26.2c6.3-6.82,13.94-10.22,22.95-10.22,4.14,0,8.02.78,11.66,2.35,3.63,1.56,6.99,3.91,10.08,7.04v-7.61h17.32v69.04Zm82.55-9.9c0,11.68-2.35,20.27-7.05,25.77-6.3,7.44-15.8,11.16-28.49,11.16-6.77,0-12.46-.84-17.07-2.53-4.61-1.7-8.5-4.18-11.68-7.46-3.17-3.28-5.52-7.27-7.04-11.96h19.1c1.69,1.94,3.87,3.41,6.54,4.41,2.66.99,5.81,1.49,9.45,1.49,4.66,0,8.4-.72,11.24-2.16,2.83-1.44,4.83-3.3,5.99-5.58,1.17-2.29,1.75-6.22,1.75-11.81-3.05,3.05-6.24,5.24-9.58,6.57-3.35,1.33-7.13,2-11.36,2-9.27,0-17.1-3.34-23.48-10.03-6.39-6.68-9.59-15.14-9.59-25.38,0-10.96,3.39-19.76,10.16-26.4,6.13-6.01,13.45-9.01,21.95-9.01,3.98,0,7.74.73,11.27,2.19,3.53,1.46,7.07,3.86,10.63,7.2v-7.61h17.26v59.14Zm78.45-6.41c-3.23,5.67-7.64,10.1-13.23,13.3-5.58,3.19-11.74,4.79-18.46,4.79-9.9,0-18.35-3.53-25.36-10.57-7-7.04-10.5-15.6-10.5-25.67,0-10.79,3.96-19.78,11.87-26.97,6.94-6.26,14.91-9.39,23.92-9.39,6.52,0,12.64,1.63,18.37,4.89,5.74,3.25,10.21,7.67,13.43,13.26,3.21,5.58,4.82,11.61,4.82,18.08s-1.62,12.61-4.86,18.28Zm-31.47-38.2c-5.38,0-9.87,1.87-13.45,5.61-3.58,3.75-5.37,8.37-5.37,14.38s1.77,10.87,5.31,14.59c3.54,3.73,8.03,5.59,13.45,5.59s9.93-1.88,13.53-5.65c3.61-3.76,5.41-8.61,5.41-14.53s-1.77-10.74-5.31-14.44c-3.54-3.7-8.19-5.55-13.57-5.55Zm-82.2-.13c-5.46,0-9.96,1.83-13.52,5.49-3.55,3.66-5.33,8.04-5.33,13.8s1.82,10.47,5.46,14.15c3.64,3.69,8.34,5.53,13.71,5.53s9.8-1.8,13.29-5.4c3.49-3.59,5.24-8.31,5.24-14.15s-1.76-10.43-5.27-14.02c-3.51-3.6-8.12-5.4-13.58-5.4Zm-82.87-.19c-5.35,0-9.8,1.9-13.34,5.68-3.54,3.79-5.31,8.59-5.31,14.56s1.8,10.88,5.4,14.73c3.61,3.85,7.88,5.77,13.32,5.77s9.95-1.89,13.53-5.68c3.58-3.78,5.38-8.74,5.38-14.88s-1.8-10.87-5.38-14.59c-3.58-3.73-8.25-5.59-13.6-5.59Zm-162.52.32c-5.39,0-9.87,1.87-13.45,5.61-3.58,3.75-5.37,8.37-5.37,14.38s1.77,10.87,5.31,14.59c3.54,3.73,8.01,5.59,13.44,5.59s9.94-1.88,13.54-5.65c3.6-3.76,5.41-8.61,5.41-14.53s-1.77-10.74-5.31-14.44c-3.54-3.7-8.18-5.55-13.57-5.55Zm13.57,5.55c-3.54-3.7-8.18-5.55-13.57-5.55s-9.87,1.87-13.45,5.61c-3.58,3.75-5.37,8.37-5.37,14.38s1.77,10.87,5.31,14.59c3.54,3.73,8.01,5.59,13.44,5.59s9.94-1.88,13.54-5.65c3.6-3.76,5.41-8.61,5.41-14.53s-1.77-10.74-5.31-14.44Zm162.55-.28c-3.58-3.73-8.25-5.59-13.6-5.59s-9.8,1.9-13.34,5.68c-3.54,3.79-5.31,8.59-5.31,14.56s1.8,10.88,5.4,14.73c3.61,3.85,7.88,5.77,13.32,5.77s9.95-1.89,13.53-5.68c3.58-3.78,5.38-8.74,5.38-14.88s-1.8-10.87-5.38-14.59Zm0,0c-3.58-3.73-8.25-5.59-13.6-5.59s-9.8,1.9-13.34,5.68c-3.54,3.79-5.31,8.59-5.31,14.56s1.8,10.88,5.4,14.73c3.61,3.85,7.88,5.77,13.32,5.77s9.95-1.89,13.53-5.68c3.58-3.78,5.38-8.74,5.38-14.88s-1.8-10.87-5.38-14.59Zm-162.55.28c-3.54-3.7-8.18-5.55-13.57-5.55s-9.87,1.87-13.45,5.61c-3.58,3.75-5.37,8.37-5.37,14.38s1.77,10.87,5.31,14.59c3.54,3.73,8.01,5.59,13.44,5.59s9.94-1.88,13.54-5.65c3.6-3.76,5.41-8.61,5.41-14.53s-1.77-10.74-5.31-14.44Z"/>
    <g>
      <path class="cls-2" d="m400,0H100C44.77,0,0,44.77,0,100v300c0,55.23,44.77,100,100,100h300c55.23,0,100-44.77,100-100V100c0-55.23-44.77-100-100-100ZM119.14,406.38c-3.23,5.67-7.64,10.1-13.23,13.3-5.58,3.19-11.74,4.79-18.47,4.79-9.9,0-18.35-3.53-25.35-10.57-7-7.04-10.5-15.6-10.5-25.67,0-10.79,3.96-19.78,11.87-26.97,6.93-6.26,14.91-9.39,23.92-9.39,6.52,0,12.64,1.63,18.37,4.89,5.73,3.25,10.21,7.67,13.42,13.26,3.22,5.58,4.83,11.61,4.83,18.08s-1.62,12.61-4.86,18.28Zm77.44,7.71c-6.51,6.92-14.23,10.38-23.16,10.38-3.98,0-7.68-.71-11.11-2.13-3.42-1.42-6.83-3.73-10.21-6.95v32.56h-17.2v-94.3h17.2v7.61c3.13-3.13,6.51-5.48,10.15-7.04,3.64-1.57,7.53-2.35,11.68-2.35,9.01,0,16.67,3.4,22.97,10.22,6.3,6.81,9.46,15.54,9.46,26.2s-3.26,18.88-9.78,25.8Zm89.15,8.6h-17.32v-7.3c-3.39,3.22-6.78,5.53-10.18,6.95-3.4,1.42-7.09,2.13-11.06,2.13-8.91,0-16.63-3.46-23.13-10.38-6.51-6.92-9.76-15.51-9.76-25.8s3.14-19.39,9.44-26.2c6.3-6.82,13.94-10.22,22.95-10.22,4.14,0,8.02.78,11.66,2.35,3.63,1.56,6.99,3.91,10.08,7.04v-7.61h17.32v69.04Zm82.55-9.9c0,11.68-2.35,20.27-7.05,25.77-6.3,7.44-15.8,11.16-28.49,11.16-6.77,0-12.46-.84-17.07-2.53-4.61-1.7-8.5-4.18-11.68-7.46-3.17-3.28-5.52-7.27-7.04-11.96h19.1c1.69,1.94,3.87,3.41,6.54,4.41,2.66.99,5.81,1.49,9.45,1.49,4.66,0,8.4-.72,11.24-2.16,2.83-1.44,4.83-3.3,5.99-5.58,1.17-2.29,1.75-6.22,1.75-11.81-3.05,3.05-6.24,5.24-9.58,6.57-3.35,1.33-7.13,2-11.36,2-9.27,0-17.1-3.34-23.48-10.03-6.39-6.68-9.59-15.14-9.59-25.38,0-10.96,3.39-19.76,10.16-26.4,6.13-6.01,13.45-9.01,21.95-9.01,3.98,0,7.74.73,11.27,2.19,3.53,1.46,7.07,3.86,10.63,7.2v-7.61h17.26v59.14Zm78.45-6.41c-3.23,5.67-7.64,10.1-13.23,13.3-5.58,3.19-11.74,4.79-18.46,4.79-9.9,0-18.35-3.53-25.36-10.57-7-7.04-10.5-15.6-10.5-25.67,0-10.79,3.96-19.78,11.87-26.97,6.94-6.26,14.91-9.39,23.92-9.39,6.52,0,12.64,1.63,18.37,4.89,5.74,3.25,10.21,7.67,13.43,13.26,3.21,5.58,4.82,11.61,4.82,18.08s-1.62,12.61-4.86,18.28Z"/>
      <path class="cls-3" d="m446.77,370.02c-3.22-5.59-7.69-10.01-13.43-13.26-5.73-3.26-11.85-4.89-18.37-4.89-9.01,0-16.98,3.13-23.92,9.39-7.91,7.19-11.87,16.18-11.87,26.97,0,10.07,3.5,18.63,10.5,25.67,7.01,7.04,15.46,10.57,25.36,10.57,6.72,0,12.88-1.6,18.46-4.79,5.59-3.2,10-7.63,13.23-13.3,3.24-5.67,4.86-11.81,4.86-18.28s-1.61-12.5-4.82-18.08Zm-18.04,32.68c-3.6,3.77-8.11,5.65-13.53,5.65s-9.91-1.86-13.45-5.59c-3.54-3.72-5.31-8.58-5.31-14.59s1.79-10.63,5.37-14.38c3.58-3.74,8.07-5.61,13.45-5.61s10.03,1.85,13.57,5.55c3.54,3.7,5.31,8.52,5.31,14.44s-1.8,10.77-5.41,14.53Z"/>
      <path class="cls-3" d="m351.02,353.65v7.61c-3.56-3.34-7.1-5.74-10.63-7.2-3.53-1.46-7.29-2.19-11.27-2.19-8.5,0-15.82,3-21.95,9.01-6.77,6.64-10.16,15.44-10.16,26.4,0,10.24,3.2,18.7,9.59,25.38,6.38,6.69,14.21,10.03,23.48,10.03,4.23,0,8.01-.67,11.36-2,3.34-1.33,6.53-3.52,9.58-6.57,0,5.59-.58,9.52-1.75,11.81-1.16,2.28-3.16,4.14-5.99,5.58-2.84,1.44-6.58,2.16-11.24,2.16-3.64,0-6.79-.5-9.45-1.49-2.67-1-4.85-2.47-6.54-4.41h-19.1c1.52,4.69,3.87,8.68,7.04,11.96,3.18,3.28,7.07,5.76,11.68,7.46,4.61,1.69,10.3,2.53,17.07,2.53,12.69,0,22.19-3.72,28.49-11.16,4.7-5.5,7.05-14.09,7.05-25.77v-59.14h-17.26Zm-4.35,47.97c-3.49,3.6-7.92,5.4-13.29,5.4s-10.07-1.84-13.71-5.53c-3.64-3.68-5.46-8.39-5.46-14.15s1.78-10.14,5.33-13.8c3.56-3.66,8.06-5.49,13.52-5.49s10.07,1.8,13.58,5.4c3.51,3.59,5.27,8.27,5.27,14.02s-1.75,10.56-5.24,14.15Z"/>
      <path class="cls-3" d="m268.41,353.65v7.61c-3.09-3.13-6.45-5.48-10.08-7.04-3.64-1.57-7.52-2.35-11.66-2.35-9.01,0-16.65,3.4-22.95,10.22-6.3,6.81-9.44,15.91-9.44,26.2s3.25,18.88,9.76,25.8c6.5,6.92,14.22,10.38,23.13,10.38,3.97,0,7.66-.71,11.06-2.13,3.4-1.42,6.79-3.73,10.18-6.95v7.3h17.32v-69.04h-17.32Zm-4.62,49.27c-3.58,3.79-8.09,5.68-13.53,5.68s-9.71-1.92-13.32-5.77c-3.6-3.85-5.4-8.76-5.4-14.73s1.77-10.77,5.31-14.56c3.54-3.78,7.99-5.68,13.34-5.68s10.02,1.86,13.6,5.59c3.58,3.72,5.38,8.58,5.38,14.59s-1.8,11.1-5.38,14.88Z"/>
      <path class="cls-3" d="m119.17,370.02c-3.21-5.59-7.69-10.01-13.42-13.26-5.73-3.26-11.85-4.89-18.37-4.89-9.01,0-16.99,3.13-23.92,9.39-7.91,7.19-11.87,16.18-11.87,26.97,0,10.07,3.5,18.63,10.5,25.67,7,7.04,15.45,10.57,25.35,10.57,6.73,0,12.89-1.6,18.47-4.79,5.59-3.2,10-7.63,13.23-13.3,3.24-5.67,4.86-11.81,4.86-18.28s-1.61-12.5-4.83-18.08Zm-18.03,32.68c-3.6,3.77-8.11,5.65-13.54,5.65s-9.9-1.86-13.44-5.59c-3.54-3.72-5.31-8.58-5.31-14.59s1.79-10.63,5.37-14.38c3.58-3.74,8.06-5.61,13.45-5.61s10.03,1.85,13.57,5.55c3.54,3.7,5.31,8.52,5.31,14.44s-1.81,10.77-5.41,14.53Z"/>
      <path class="cls-3" d="m196.9,362.09c-6.3-6.82-13.96-10.22-22.97-10.22-4.15,0-8.04.78-11.68,2.35-3.64,1.56-7.02,3.91-10.15,7.04v-7.61h-17.2v94.3h17.2v-32.56c3.38,3.22,6.79,5.53,10.21,6.95,3.43,1.42,7.13,2.13,11.11,2.13,8.93,0,16.65-3.46,23.16-10.38,6.52-6.92,9.78-15.14,9.78-25.8s-3.16-19.39-9.46-26.2Zm-13.23,40.74c-3.62,3.85-8.07,5.77-13.36,5.77s-9.98-1.89-13.58-5.68c-3.6-3.78-5.39-8.74-5.39-14.88s1.79-10.87,5.39-14.59c3.6-3.73,8.12-5.59,13.58-5.59s9.9,1.9,13.45,5.68c3.56,3.79,5.33,8.64,5.33,14.56s-1.8,10.88-5.42,14.73Z"/>
      <path class="cls-2" d="m106.55,388.17c0,5.92-1.81,10.77-5.41,14.53-3.6,3.77-8.11,5.65-13.54,5.65s-9.9-1.86-13.44-5.59c-3.54-3.72-5.31-8.58-5.31-14.59s1.79-10.63,5.37-14.38c3.58-3.74,8.06-5.61,13.45-5.61s10.03,1.85,13.57,5.55c3.54,3.7,5.31,8.52,5.31,14.44Z"/>
      <path class="cls-2" d="m189.09,388.1c0,5.97-1.8,10.88-5.42,14.73-3.62,3.85-8.07,5.77-13.36,5.77s-9.98-1.89-13.58-5.68c-3.6-3.78-5.39-8.74-5.39-14.88s1.79-10.87,5.39-14.59c3.6-3.73,8.12-5.59,13.58-5.59s9.9,1.9,13.45,5.68c3.56,3.79,5.33,8.64,5.33,14.56Z"/>
      <path class="cls-2" d="m269.17,388.04c0,6.14-1.8,11.1-5.38,14.88-3.58,3.79-8.09,5.68-13.53,5.68s-9.71-1.92-13.32-5.77c-3.6-3.85-5.4-8.76-5.4-14.73s1.77-10.77,5.31-14.56c3.54-3.78,7.99-5.68,13.34-5.68s10.02,1.86,13.6,5.59c3.58,3.72,5.38,8.58,5.38,14.59Z"/>
      <path class="cls-2" d="m351.91,387.47c0,5.84-1.75,10.56-5.24,14.15-3.49,3.6-7.92,5.4-13.29,5.4s-10.07-1.84-13.71-5.53c-3.64-3.68-5.46-8.39-5.46-14.15s1.78-10.14,5.33-13.8c3.56-3.66,8.06-5.49,13.52-5.49s10.07,1.8,13.58,5.4c3.51,3.59,5.27,8.27,5.27,14.02Z"/>
      <path class="cls-2" d="m434.14,388.17c0,5.92-1.8,10.77-5.41,14.53-3.6,3.77-8.11,5.65-13.53,5.65s-9.91-1.86-13.45-5.59c-3.54-3.72-5.31-8.58-5.31-14.59s1.79-10.63,5.37-14.38c3.58-3.74,8.07-5.61,13.45-5.61s10.03,1.85,13.57,5.55c3.54,3.7,5.31,8.52,5.31,14.44Z"/>
    </g>
  </g>
</svg>